<?xml version="1.0" standalone="no"?><!DOCTYPE svg PUBLIC "-//W3C//DTD SVG 1.1//EN" "http://www.w3.org/Graphics/SVG/1.1/DTD/svg11.dtd"><svg t="1540872620081" class="icon" style="" viewBox="0 0 1024 1024" version="1.1" xmlns="http://www.w3.org/2000/svg" p-id="3961" xmlns:xlink="http://www.w3.org/1999/xlink" width="128" height="128"><defs><style type="text/css"></style></defs><path d="M896 800h-315.136l-29.632-96H832c16.384 0 32.768-8.32 45.248-20.832 12.512-12.48 18.752-30.944 18.752-47.328v-384c0-16.384-6.24-30.688-18.752-43.168C864.768 196.16 848.384 192 832 192H192c-16.384 0-32.768 4.16-45.248 16.672C134.24 221.152 128 235.456 128 251.84v384c0 16.384 6.24 34.848 18.752 47.328 12.48 12.512 28.864 20.832 45.248 20.832h260.416l-29.632 96H128a16 16 0 0 0 0 32h768a16 16 0 0 0 0-32z m-32-164.16" p-id="3962"></path></svg>