<?xml version="1.0" standalone="no"?><!DOCTYPE svg PUBLIC "-//W3C//DTD SVG 1.1//EN" "http://www.w3.org/Graphics/SVG/1.1/DTD/svg11.dtd"><svg t="1540872459218" class="icon" style="" viewBox="0 0 1024 1024" version="1.1" xmlns="http://www.w3.org/2000/svg" p-id="1971" xmlns:xlink="http://www.w3.org/1999/xlink" width="128" height="128"><defs><style type="text/css"></style></defs><path d="M931.9158517333333 271.70133333333337h-174.76266666666666c12.136296533333333 131.072-89.80859306666666 126.2174816-89.808592 126.2174816H368.7917034666667c-99.51762986666665 0-97.09037013333334-99.51762986666665-97.09037013333334-126.2174816H96.93866666666668c-29.127111466666666 0-53.399703466666665 21.845333333333333-53.399703466666665 50.9724448v575.2604437333333c0 29.127111466666666 24.272593066666666 50.9724448 53.399703466666665 50.9724448h834.9771850666666c29.127111466666666 0 53.399703466666665-21.845333333333333 53.399703466666665-50.9724448V322.6737781333333c0-29.127111466666666-24.272593066666666-50.9724448-53.399703466666665-50.9724448zM560.5451850666667 553.2634069333333h114.08118506666666c14.5635552 0 24.272593066666666 9.7090368 24.272593066666666 24.272593066666666s-9.7090368 24.272593066666666-24.272593066666666 24.272593066666666h-114.08118506666666c-14.5635552 0-24.272593066666666-9.7090368-24.272592-24.272593066666666s12.136296533333333-24.272593066666666 24.272592-24.272593066666666z m0 99.51762986666665h288.84385173333334c14.5635552 0 24.272593066666666 9.7090368 24.272593066666666 24.272593066666666s-9.7090368 24.272593066666666-24.272593066666666 24.272592H560.5451850666667c-14.5635552 0-24.272593066666666-9.7090368-24.272592-24.272592s12.136296533333333-24.272593066666666 24.272592-24.272593066666666z m-269.4257781333333-138.35377706666668c38.83614826666667 0 70.3905184 33.981629866666665 70.39051946666666 75.2450368 0 41.26340693333333-31.554370133333336 75.2450368-70.39051946666666 75.2450368-38.83614826666667 0-70.3905184-33.981629866666665-70.3905184-75.2450368 0-41.26340693333333 31.554370133333336-75.2450368 70.3905184-75.2450368z m138.35377813333335 288.84385173333334H152.7656298666667v-92.23585173333332s0-33.981629866666665 72.81777706666666-53.399704533333335l65.536 60.6814816 55.8269632-58.25422186666666s82.52681493333333 7.281778133333333 82.52681493333333 60.6814816v82.52681493333333z m449.0429632-2.427259733333333H560.5451850666667c-14.5635552 0-24.272593066666666-9.7090368-24.272592-24.272592s9.7090368-24.272593066666666 24.272592-24.272593066666666h317.9709632c14.5635552 0 24.272593066666666 9.7090368 24.272592 24.272593066666666s-12.136296533333333 24.272593066666666-24.272592 24.272592z" fill="" p-id="1972"></path><path d="M317.8192597333333 274.12859306666667c2.427259733333333 67.96325973333333 55.8269632 75.2450368 55.82696213333333 75.2450368h283.9893333333333c46.1179264 0 53.399703466666665-55.8269632 55.8269632-75.2450368h-2.427258666666667 2.427258666666667c0-99.51762986666665-92.23585173333332-82.52681493333333-92.23585173333332-82.52681493333333 0-99.51762986666665-106.79940693333333-94.66311146666666-106.79940693333333-94.66311146666666-114.08118506666666 0-111.6539264 94.66311146666666-111.6539264 94.66311146666666-89.80859306666666-2.427259733333333-84.95407359999999 80.0995552-84.95407359999999 82.52681493333333z m196.608-121.3629632c29.127111466666666 0 55.8269632 24.272593066666666 55.82696213333333 53.399703466666665 0 29.127111466666666-24.272593066666666 53.399703466666665-55.82696213333333 53.399703466666665-29.127111466666666 0-55.8269632-24.272593066666666-55.8269632-53.399703466666665 2.427259733333333-29.127111466666666 26.699851733333333-53.399703466666665 55.8269632-53.399703466666665z" fill="" p-id="1973"></path></svg>